<svg width="400" height="400" viewBox="0 0 400 400" fill="none" xmlns="http://www.w3.org/2000/svg">
  <!-- Small stars -->
  <rect x="20" y="30" width="2" height="2" fill="white" fill-opacity="0.7"/>
  <rect x="50" y="80" width="2" height="2" fill="white" fill-opacity="0.7"/>
  <rect x="120" y="40" width="2" height="2" fill="white" fill-opacity="0.7"/>
  <rect x="180" y="90" width="2" height="2" fill="white" fill-opacity="0.7"/>
  <rect x="250" y="30" width="2" height="2" fill="white" fill-opacity="0.7"/>
  <rect x="300" y="70" width="2" height="2" fill="white" fill-opacity="0.7"/>
  <rect x="350" y="20" width="2" height="2" fill="white" fill-opacity="0.7"/>
  <rect x="70" y="150" width="2" height="2" fill="white" fill-opacity="0.7"/>
  <rect x="150" y="180" width="2" height="2" fill="white" fill-opacity="0.7"/>
  <rect x="220" y="150" width="2" height="2" fill="white" fill-opacity="0.7"/>
  <rect x="280" y="190" width="2" height="2" fill="white" fill-opacity="0.7"/>
  <rect x="330" y="130" width="2" height="2" fill="white" fill-opacity="0.7"/>
  <rect x="40" y="230" width="2" height="2" fill="white" fill-opacity="0.7"/>
  <rect x="100" y="270" width="2" height="2" fill="white" fill-opacity="0.7"/>
  <rect x="170" y="250" width="2" height="2" fill="white" fill-opacity="0.7"/>
  <rect x="240" y="280" width="2" height="2" fill="white" fill-opacity="0.7"/>
  <rect x="310" y="240" width="2" height="2" fill="white" fill-opacity="0.7"/>
  <rect x="370" y="290" width="2" height="2" fill="white" fill-opacity="0.7"/>
  <rect x="30" y="340" width="2" height="2" fill="white" fill-opacity="0.7"/>
  <rect x="90" y="380" width="2" height="2" fill="white" fill-opacity="0.7"/>
  <rect x="160" y="330" width="2" height="2" fill="white" fill-opacity="0.7"/>
  <rect x="230" y="370" width="2" height="2" fill="white" fill-opacity="0.7"/>
  <rect x="290" y="320" width="2" height="2" fill="white" fill-opacity="0.7"/>
  <rect x="350" y="360" width="2" height="2" fill="white" fill-opacity="0.7"/>
  
  <!-- Medium stars -->
  <path d="M80 120 L82 125 L87 127 L82 129 L80 134 L78 129 L73 127 L78 125 L80 120 Z" fill="white" fill-opacity="0.8"/>
  <path d="M200 60 L202 65 L207 67 L202 69 L200 74 L198 69 L193 67 L198 65 L200 60 Z" fill="white" fill-opacity="0.8"/>
  <path d="M320 180 L322 185 L327 187 L322 189 L320 194 L318 189 L313 187 L318 185 L320 180 Z" fill="white" fill-opacity="0.8"/>
  <path d="M140 220 L142 225 L147 227 L142 229 L140 234 L138 229 L133 227 L138 225 L140 220 Z" fill="white" fill-opacity="0.8"/>
  <path d="M260 300 L262 305 L267 307 L262 309 L260 314 L258 309 L253 307 L258 305 L260 300 Z" fill="white" fill-opacity="0.8"/>
  
  <!-- Twinkle effect for a few stars -->
  <path d="M380 100 L382 105 L387 107 L382 109 L380 114 L378 109 L373 107 L378 105 L380 100 Z" fill="#FFFACD" fill-opacity="0.9">
    <animate attributeName="fill-opacity" values="0.9;0.3;0.9" dur="3s" repeatCount="indefinite" />
  </path>
  <path d="M50 200 L52 205 L57 207 L52 209 L50 214 L48 209 L43 207 L48 205 L50 200 Z" fill="#FFFACD" fill-opacity="0.9">
    <animate attributeName="fill-opacity" values="0.9;0.3;0.9" dur="4s" repeatCount="indefinite" />
  </path>
  <path d="M200 350 L202 355 L207 357 L202 359 L200 364 L198 359 L193 357 L198 355 L200 350 Z" fill="#FFFACD" fill-opacity="0.9">
    <animate attributeName="fill-opacity" values="0.9;0.3;0.9" dur="5s" repeatCount="indefinite" />
  </path>
</svg>
