<svg width="140" height="90" viewBox="0 0 140 90" fill="none" xmlns="http://www.w3.org/2000/svg">
  <!-- Base cloud shape -->
  <path d="M20 60 H30 V70 H40 V80 H70 V70 H90 V80 H110 V70 H120 V60 H130 V40 H120 V30 H100 V40 H80 V30 H60 V40 H40 V50 H30 V60 H20 Z" fill="white" fill-opacity="0.9"/>
  
  <!-- Cloud highlights -->
  <path d="M30 50 H40 V60 H50 V70 H40 V60 H30 V50 Z" fill="#F0F8FF" fill-opacity="0.9"/>
  <path d="M70 40 H80 V50 H90 V60 H80 V50 H70 V40 Z" fill="#F0F8FF" fill-opacity="0.9"/>
  <path d="M100 60 H110 V50 H100 V60 Z" fill="#F0F8FF" fill-opacity="0.9"/>
  
  <!-- Cloud shadows -->
  <path d="M50 70 H60 V80 H90 V70 H80 V60 H70 V70 H50 Z" fill="#E6E6FA" fill-opacity="0.7"/>
  <path d="M90 40 H100 V50 H110 V60 H100 V50 H90 V40 Z" fill="#E6E6FA" fill-opacity="0.7"/>
  
  <!-- Cloud outline details -->
  <path d="M40 80 H70 M90 80 H110 M120 60 H130 M130 40 H120 M100 30 H120 M60 30 H100 M40 40 H60 M20 50 H40" stroke="#F0F8FF" stroke-width="2" stroke-opacity="0.5" />
</svg>
